<svg xmlns="http://www.w3.org/2000/svg" width="752" height="591" viewBox="0 0 752 591">
  <g id="hero-footer" transform="translate(-960 -286)">
    <g id="Polygon_1" data-name="Polygon 1" transform="translate(1390 286)" fill="#1a4645">
      <path d="M 214.1575469970703 196.5 L 0.8424509167671204 196.5 L 107.5 1.043840289115906 L 214.1575469970703 196.5 Z" stroke="none"/>
      <path d="M 107.5 2.087631225585938 L 1.68487548828125 196 L 213.3151245117188 196 L 107.5 2.087631225585938 M 107.5 0 L 215 197 L 0 197 L 107.5 0 Z" stroke="none" fill="#707070"/>
    </g>
    <g id="Polygon_2" data-name="Polygon 2" transform="translate(1283 483)" fill="#1a6465">
      <path d="M 214.1575469970703 196.5 L 0.8424509167671204 196.5 L 107.5 1.043840289115906 L 214.1575469970703 196.5 Z" stroke="none"/>
      <path d="M 107.5 2.087631225585938 L 1.68487548828125 196 L 213.3151245117188 196 L 107.5 2.087631225585938 M 107.5 0 L 215 197 L 0 197 L 107.5 0 Z" stroke="none" fill="#707070"/>
    </g>
    <g id="Polygon_3" data-name="Polygon 3" transform="translate(1497 483)" fill="#1a4645">
      <path d="M 214.1575469970703 196.5 L 0.8424509167671204 196.5 L 107.5 1.043840289115906 L 214.1575469970703 196.5 Z" stroke="none"/>
      <path d="M 107.5 2.087631225585938 L 1.68487548828125 196 L 213.3151245117188 196 L 107.5 2.087631225585938 M 107.5 0 L 215 197 L 0 197 L 107.5 0 Z" stroke="none" fill="#707070"/>
    </g>
    <g id="Polygon_4" data-name="Polygon 4" transform="translate(1067 483)" fill="#fff">
      <path d="M 214.1575469970703 196.5 L 0.8424509167671204 196.5 L 107.5 1.043840289115906 L 214.1575469970703 196.5 Z" stroke="none"/>
      <path d="M 107.5 2.087631225585938 L 1.68487548828125 196 L 213.3151245117188 196 L 107.5 2.087631225585938 M 107.5 0 L 215 197 L 0 197 L 107.5 0 Z" stroke="none" fill="#707070"/>
    </g>
    <g id="Polygon_5" data-name="Polygon 5" transform="translate(960 680)" fill="#1a6465">
      <path d="M 214.1575469970703 196.5 L 0.8424509167671204 196.5 L 107.5 1.043840289115906 L 214.1575469970703 196.5 Z" stroke="none"/>
      <path d="M 107.5 2.087631225585938 L 1.68487548828125 196 L 213.3151245117188 196 L 107.5 2.087631225585938 M 107.5 0 L 215 197 L 0 197 L 107.5 0 Z" stroke="none" fill="#707070"/>
    </g>
    <g id="Polygon_6" data-name="Polygon 6" transform="translate(1174 680)" fill="#fff">
      <path d="M 214.1575469970703 196.5 L 0.8424509167671204 196.5 L 107.5 1.043840289115906 L 214.1575469970703 196.5 Z" stroke="none"/>
      <path d="M 107.5 2.087631225585938 L 1.68487548828125 196 L 213.3151245117188 196 L 107.5 2.087631225585938 M 107.5 0 L 215 197 L 0 197 L 107.5 0 Z" stroke="none" fill="#707070"/>
    </g>
  </g>
</svg>
